<svg width="800" height="480" viewBox="0 0 800 480" fill="none" xmlns="http://www.w3.org/2000/svg">
  <defs>
    <linearGradient id="bg" x1="184" y1="44" x2="660" y2="420" gradientUnits="userSpaceOnUse">
      <stop stop-color="#BEE4FF"/>
      <stop offset="0.45" stop-color="#69ABFF"/>
      <stop offset="1" stop-color="#2359DF"/>
    </linearGradient>
    <linearGradient id="luggage" x1="518" y1="168" x2="662" y2="378" gradientUnits="userSpaceOnUse">
      <stop stop-color="#9DD7FF"/>
      <stop offset="1" stop-color="#2876FF"/>
    </linearGradient>
  </defs>
  <rect width="800" height="480" rx="40" fill="url(#bg)"/>
  <circle cx="652" cy="112" r="62" fill="white" fill-opacity="0.18"/>
  <circle cx="576" cy="96" r="44" fill="white" fill-opacity="0.1"/>
  <path d="M236 164C259 128 289 102 330 84L460 26C477 18 496 22 511 34L540 57L642 76C670 81 688 108 682 136L678 154C672 182 644 199 616 193L526 175L474 283C463 306 436 318 412 311L398 307C390 304 387 295 392 288L432 221L344 243L321 290C312 308 292 317 274 311L257 306C247 302 242 292 246 282L262 244L204 255C176 261 148 248 135 223L121 195C115 183 115 168 121 157L236 164Z" fill="white"/>
  <path d="M384 97L539 39L563 61L425 96L384 97Z" fill="#EAF2FF"/>
  <path d="M468 130L564 148L478 164L418 230L407 226L468 130Z" fill="#D7E6FF"/>
  <path d="M323 153L372 152L309 230L299 226L323 153Z" fill="#D7E6FF"/>
  <path d="M298 128L351 121L360 140L287 156L298 128Z" fill="#18489A"/>
  <circle cx="348" cy="116" r="18" fill="#17418F"/>
  <circle cx="348" cy="116" r="8" fill="#8CB1FF"/>
  <rect x="500" y="166" width="142" height="190" rx="28" fill="url(#luggage)"/>
  <rect x="462" y="216" width="110" height="140" rx="24" fill="url(#luggage)"/>
  <rect x="518" y="146" width="18" height="36" rx="9" fill="#D8ECFF"/>
  <rect x="606" y="146" width="18" height="36" rx="9" fill="#D8ECFF"/>
  <rect x="486" y="204" width="18" height="28" rx="9" fill="#D8ECFF"/>
  <rect x="531" y="194" width="42" height="8" rx="4" fill="#D8ECFF"/>
  <rect x="544" y="166" width="54" height="8" rx="4" fill="#D8ECFF"/>
  <circle cx="550" cy="384" r="12" fill="#D6E8FF"/>
  <circle cx="620" cy="384" r="12" fill="#D6E8FF"/>
  <circle cx="514" cy="384" r="12" fill="#D6E8FF"/>
  <circle cx="596" cy="384" r="12" fill="#D6E8FF"/>
  <path d="M410 276L474 218L558 242L548 338L446 352L410 276Z" fill="white" fill-opacity="0.2"/>
  <path d="M452 234L504 256V324C493 332 477 340 455 348C427 333 411 315 407 294L452 234Z" fill="white"/>
  <path d="M448 290L472 312L516 266" stroke="#2373FF" stroke-width="16" stroke-linecap="round" stroke-linejoin="round"/>
</svg>
