<svg width="640" height="420" viewBox="0 0 640 420" fill="none" xmlns="http://www.w3.org/2000/svg">
  <defs>
    <linearGradient id="bg" x1="52" y1="26" x2="560" y2="392" gradientUnits="userSpaceOnUse">
      <stop stop-color="#2858D3"/>
      <stop offset="0.5" stop-color="#68AAFA"/>
      <stop offset="1" stop-color="#162D5B"/>
    </linearGradient>
  </defs>
  <rect width="640" height="420" fill="url(#bg)"/>
  <circle cx="486" cy="88" r="34" fill="#FFF4BF" fill-opacity="0.94"/>
  <rect x="0" y="300" width="640" height="120" fill="#152342" fill-opacity="0.72"/>
  <rect x="98" y="170" width="44" height="130" fill="#9AB9F0"/>
  <rect x="160" y="122" width="52" height="178" fill="#C2D6FA"/>
  <rect x="232" y="92" width="54" height="208" rx="14" fill="#E1EBFF"/>
  <rect x="308" y="138" width="42" height="162" fill="#9CC1FB"/>
  <rect x="380" y="74" width="66" height="226" rx="18" fill="#D8E6FF"/>
  <rect x="468" y="118" width="38" height="182" fill="#93B8F2"/>
  <rect x="522" y="148" width="46" height="152" fill="#78A3E9"/>
  <path d="M406 50L440 74H372L406 50Z" fill="#EEF5FF"/>
  <path d="M0 348C122 330 199 353 284 341C374 327 424 272 526 283C571 288 610 325 640 320V420H0V348Z" fill="#081629" fill-opacity="0.42"/>
</svg>
