<svg width="640" height="420" viewBox="0 0 640 420" fill="none" xmlns="http://www.w3.org/2000/svg">
  <defs>
    <linearGradient id="bg" x1="48" y1="32" x2="548" y2="380" gradientUnits="userSpaceOnUse">
      <stop stop-color="#5E8BFF"/>
      <stop offset="0.55" stop-color="#F1A35E"/>
      <stop offset="1" stop-color="#21305A"/>
    </linearGradient>
  </defs>
  <rect width="640" height="420" fill="url(#bg)"/>
  <circle cx="484" cy="84" r="40" fill="#FFD481" fill-opacity="0.9"/>
  <rect x="0" y="290" width="640" height="130" fill="#1A264A" fill-opacity="0.72"/>
  <rect x="72" y="186" width="160" height="118" rx="8" fill="#A75222"/>
  <path d="M54 188L152 128L250 188H54Z" fill="#FFB35A"/>
  <path d="M92 148H212L152 118L92 148Z" fill="#FDE0A0"/>
  <rect x="112" y="154" width="80" height="16" fill="#784218"/>
  <rect x="132" y="204" width="18" height="100" fill="#FFD19F"/>
  <rect x="156" y="204" width="18" height="100" fill="#FFD19F"/>
  <rect x="364" y="110" width="28" height="194" fill="#C7D9FF"/>
  <ellipse cx="378" cy="104" rx="44" ry="16" fill="#D8E6FF"/>
  <rect x="498" y="70" width="10" height="234" fill="#D32F2F"/>
  <circle cx="503" cy="70" r="18" fill="#D32F2F"/>
  <path d="M0 336C115 308 169 340 245 334C312 329 350 286 427 286C505 286 560 342 640 330V420H0V336Z" fill="#0E1A35" fill-opacity="0.4"/>
</svg>
